<?xml version="1.0" encoding="UTF-8"?>
<!DOCTYPE svg PUBLIC "-//W3C//DTD SVG 1.1//EN" "http://www.w3.org/Graphics/SVG/1.1/DTD/svg11.dtd">
<!-- Creator: CorelDRAW 2020 (64-Bit) -->
<svg xmlns="http://www.w3.org/2000/svg" xml:space="preserve" width="16.7309mm" height="5.8708mm" version="1.1" style="shape-rendering:geometricPrecision; text-rendering:geometricPrecision; image-rendering:optimizeQuality; fill-rule:evenodd; clip-rule:evenodd"
viewBox="0 0 328.57 115.29"
 xmlns:xlink="http://www.w3.org/1999/xlink"
 xmlns:xodm="http://www.corel.com/coreldraw/odm/2003">
 <defs>
  <style type="text/css">
   <![CDATA[
    .fil0 {fill:#FEFEFE;fill-rule:nonzero}
   ]]>
  </style>
 </defs>
 <g id="Layer-43">
  <metadata id="CorelCorpID_0Corel-Layer"/>
  <g id="_2291716939088">
   <path class="fil0" d="M171.11 34.6c0.2,1.23 0.44,2.27 0.74,3.45l3.79 14.48c0.25,0.99 0.79,1.82 2.02,1.82l0.94 0c1.33,-0.05 1.87,-0.99 2.02,-2.02l4.58 -30.89c0.2,-1.23 -0.44,-2.36 -1.97,-2.56 -1.53,-0.2 -2.36,0.79 -2.51,1.97l-2.71 20.3c-0.25,1.68 -0.39,3.6 -0.44,4.98l-0.05 0c-0.2,-1.38 -0.39,-3.1 -0.89,-4.83l-3.64 -13.3c-0.25,-0.94 -0.74,-1.63 -1.78,-1.63l-0.25 0c-1.03,0 -1.53,0.69 -1.77,1.63l-3.65 13.3c-0.49,1.72 -0.69,3.45 -0.89,4.83l-0.05 0c-0.05,-1.38 -0.2,-3.3 -0.44,-4.98l-2.71 -20.3c-0.15,-1.18 -0.99,-2.17 -2.51,-1.97 -1.53,0.2 -2.17,1.33 -1.97,2.56l4.58 30.89c0.15,1.03 0.69,1.97 2.02,2.02l0.94 0c1.23,0 1.77,-0.84 2.02,-1.82l3.79 -14.48c0.3,-1.18 0.54,-2.22 0.74,-3.45l0.05 0zm17.77 -13.7c0,1.72 0.64,2.91 2.96,2.91 2.22,0 2.96,-1.18 2.96,-2.91 0,-1.78 -0.74,-3.01 -2.96,-3.01 -2.32,0 -2.96,1.23 -2.96,3.01zm5.17 9.11c0,-1.18 -0.59,-2.27 -2.17,-2.27 -1.68,0 -2.27,1.08 -2.27,2.27l0 22.07c0,1.18 0.59,2.27 2.17,2.27 1.68,0 2.27,-1.08 2.27,-2.27l0 -22.07zm11.57 19.61c-0.99,0 -1.72,0.1 -2.07,0.15l10 -18.23c0.25,-0.39 0.44,-0.94 0.44,-1.38 0,-1.33 -1.03,-1.92 -2.17,-1.92l-10.74 0c-1.23,0 -2.17,0.64 -2.17,2.12 0,1.48 0.94,2.12 2.17,2.12l5.52 0c0.99,0 1.72,-0.1 2.07,-0.15l-10 18.23c-0.25,0.39 -0.44,0.94 -0.44,1.38 0,1.33 1.03,1.92 2.17,1.92l11.82 0c1.23,0 2.17,-0.64 2.17,-2.12 0,-1.48 -0.94,-2.12 -2.17,-2.12l-6.6 0zm29.65 -13.15c0,-5.42 -1.92,-8.72 -8.08,-8.72l-0.64 0c-6.16,0 -8.57,3.3 -8.57,8.72l0 7.98c0,5.52 2.56,9.41 8.72,9.41l4.53 0c1.23,0 2.17,-0.64 2.17,-2.12 0,-1.48 -0.94,-2.12 -2.17,-2.12l-4.53 0c-3.3,0 -4.29,-2.02 -4.29,-5.17l0 -1.43 10.69 0c1.23,0 2.17,-0.69 2.17,-2.17l0 -4.39zm-12.86 2.41l0 -2.41c0,-2.91 0.84,-4.58 4.14,-4.58l0.64 0c3.3,0 3.64,1.68 3.64,4.58l0 2.41 -8.42 0zm19.45 -10.64l-2.71 0c-1.13,0 -2.17,0.54 -2.17,2.12 0,1.58 1.03,2.12 2.17,2.12l2.71 0 0 11.73c0,5.52 2.12,9.66 8.33,9.66l1.72 0c1.23,0 2.17,-0.64 2.17,-2.12 0,-1.48 -0.94,-2.12 -2.17,-2.12l-1.72 0c-3.4,0 -3.89,-2.27 -3.89,-5.42l0 -11.73 4.63 0c1.13,0 2.17,-0.64 2.17,-2.12 0,-1.48 -1.03,-2.12 -2.17,-2.12l-4.63 0 0 -4.63c0,-1.18 -0.64,-2.27 -2.22,-2.27 -1.58,0 -2.22,1.08 -2.22,2.27l0 4.63zm32.65 8.23c0,-5.42 -1.92,-8.72 -8.08,-8.72l-0.64 0c-6.16,0 -8.57,3.3 -8.57,8.72l0 7.98c0,5.52 2.56,9.41 8.72,9.41l4.53 0c1.23,0 2.17,-0.64 2.17,-2.12 0,-1.48 -0.93,-2.12 -2.17,-2.12l-4.53 0c-3.3,0 -4.29,-2.02 -4.29,-5.17l0 -1.43 10.69 0c1.23,0 2.17,-0.69 2.17,-2.17l0 -4.39zm-12.86 2.41l0 -2.41c0,-2.91 0.84,-4.58 4.14,-4.58l0.64 0c3.3,0 3.65,1.68 3.65,4.58l0 2.41 -8.43 0zm22.7 6.21l3.15 -3.89 5.32 11.68c0.54,1.13 1.43,1.92 2.91,1.23 1.48,-0.69 1.68,-1.77 1.08,-3l-4.98 -10.54c-0.54,-1.18 -1.03,-2.02 -1.53,-2.71l5.17 -6.4c0.89,-1.08 1.08,-2.27 -0.05,-3.2 -0.99,-0.79 -2.32,-0.39 -3.1,0.59l-6.26 8.08c-0.64,0.84 -1.28,1.72 -1.72,2.56l0 -20.2c0,-1.18 -0.59,-2.36 -2.27,-2.36 -1.58,0 -2.22,1.08 -2.22,2.27l0 32.91c0,1.18 0.64,2.27 2.22,2.27 1.68,0 2.27,-1.08 2.27,-2.27l0 -7zm-114.57 35.65c1.43,0.64 2.46,1.87 2.46,4.04l0 1.97c0,2.96 -1.23,4.38 -4.63,4.38l-1.92 0c-2.02,0 -3.45,-0.74 -3.45,-2.81 0,-1.18 -0.69,-2.27 -2.27,-2.27 -1.68,0 -2.27,1.08 -2.27,2.27 0,5.12 3.06,7.24 7.98,7.24l1.92 0c6.26,0 9.11,-3.3 9.11,-8.82l0 -1.97c0,-4.24 -2.07,-6.9 -5.67,-8.57l-5.96 -2.76c-1.43,-0.69 -2.66,-1.92 -2.66,-3.94l0 -1.09c0,-2.96 1.18,-3.89 4.58,-3.89l0.59 0c2.02,0 3.45,0.79 3.45,2.81 0,1.18 0.69,2.27 2.27,2.27 1.68,0 2.27,-1.08 2.27,-2.27 0,-5.13 -3.05,-7.24 -7.98,-7.24l-0.59 0c-6.26,0 -9.11,2.81 -9.11,8.32l0 1.09c0,3.25 1.33,6.5 5.37,8.33l6.5 2.91zm19.84 10.64c-3.3,0 -3.89,-1.92 -3.89,-4.98l0 -8.23c0,-3.05 0.59,-4.98 3.89,-4.98l1.08 0c3.3,0 3.89,1.92 3.89,4.98l0 8.23c0,3.05 -0.59,4.98 -3.89,4.98l-1.08 0zm1.08 4.24c6.16,0 8.33,-3.79 8.33,-9.21l0 -8.23c0,-5.42 -2.17,-9.21 -8.33,-9.21l-1.08 0c-6.16,0 -8.33,3.79 -8.33,9.21l0 8.23c0,5.42 2.17,9.21 8.33,9.21l1.08 0zm18.61 -35.23c0,-1.18 -0.59,-2.27 -2.17,-2.27 -1.68,0 -2.27,1.08 -2.27,2.27l0 32.91c0,1.18 0.59,2.27 2.17,2.27 1.68,0 2.27,-1.09 2.27,-2.27l0 -32.91zm10.58 10.84c0,-1.18 -0.54,-2.27 -2.22,-2.27 -1.63,0 -2.22,1.09 -2.22,2.27l0 15.13c0,5.52 2.71,8.72 8.87,8.72l5.91 0c1.58,0 2.22,-1.03 2.22,-2.27l0 -21.58c0,-1.18 -0.64,-2.27 -2.22,-2.27 -1.68,0 -2.22,1.09 -2.22,2.27l0 19.61 -3.69 0c-3.3,0 -4.44,-1.53 -4.44,-4.48l0 -15.13zm20.24 -1.77l-2.71 0c-1.14,0 -2.17,0.54 -2.17,2.12 0,1.58 1.03,2.12 2.17,2.12l2.71 0 0 11.73c0,5.52 2.12,9.66 8.33,9.66l1.73 0c1.23,0 2.17,-0.64 2.17,-2.12 0,-1.48 -0.94,-2.12 -2.17,-2.12l-1.73 0c-3.4,0 -3.89,-2.27 -3.89,-5.42l0 -11.73 4.63 0c1.13,0 2.17,-0.64 2.17,-2.12 0,-1.48 -1.03,-2.12 -2.17,-2.12l-4.63 0 0 -4.63c0,-1.18 -0.64,-2.27 -2.22,-2.27 -1.58,0 -2.22,1.08 -2.22,2.27l0 4.63zm15.21 -7.34c0,1.72 0.64,2.91 2.96,2.91 2.22,0 2.96,-1.18 2.96,-2.91 0,-1.77 -0.74,-3 -2.96,-3 -2.32,0 -2.96,1.23 -2.96,3zm5.17 9.11c0,-1.18 -0.59,-2.27 -2.17,-2.27 -1.68,0 -2.27,1.09 -2.27,2.27l0 22.07c0,1.18 0.59,2.27 2.17,2.27 1.68,0 2.27,-1.09 2.27,-2.27l0 -22.07zm14.18 20.15c-3.3,0 -3.89,-1.92 -3.89,-4.98l0 -8.23c0,-3.05 0.59,-4.98 3.89,-4.98l1.08 0c3.3,0 3.89,1.92 3.89,4.98l0 8.23c0,3.05 -0.59,4.98 -3.89,4.98l-1.08 0zm1.08 4.24c6.16,0 8.33,-3.79 8.33,-9.21l0 -8.23c0,-5.42 -2.17,-9.21 -8.33,-9.21l-1.08 0c-6.16,0 -8.32,3.79 -8.32,9.21l0 8.23c0,5.42 2.17,9.21 8.32,9.21l1.08 0zm26.74 -2.32c0,1.18 0.54,2.27 2.22,2.27 1.63,0 2.22,-1.09 2.22,-2.27l0 -15.13c0,-5.52 -2.71,-8.72 -8.87,-8.72l-5.91 0c-1.58,0 -2.22,1.03 -2.22,2.27l0 21.58c0,1.18 0.64,2.27 2.22,2.27 1.68,0 2.22,-1.09 2.22,-2.27l0 -19.61 3.7 0c3.3,0 4.43,1.53 4.43,4.48l0 15.13zm18.61 2.27c4.83,0 7.44,-2.12 7.44,-6.65l0 -1.43c0,-3.3 -1.63,-5.22 -4.53,-6.41l-5.22 -2.12c-1.18,-0.49 -1.92,-1.28 -1.92,-2.66l0 -0.69c0,-1.48 0.69,-2.76 3.1,-2.76l0.84 0c1.77,0 2.46,0.79 2.56,1.87 0.1,1.28 0.54,2.27 2.17,2.27 1.63,0 2.12,-0.94 2.12,-2.22 0,-3.94 -2.71,-5.81 -7.24,-5.81l-0.3 0c-4.93,0 -7.49,2.12 -7.49,6.65l0 0.69c0,3.2 1.62,5.37 4.48,6.55l5.27 2.17c1.13,0.49 1.92,1.18 1.92,2.46l0 1.43c0,1.48 -0.59,2.76 -2.96,2.76l-2.32 0c-1.77,0 -2.27,-0.74 -2.42,-1.87 -0.15,-1.18 -0.59,-2.22 -2.12,-2.22 -1.63,0 -2.17,0.94 -2.17,2.22 0,3.79 2.51,5.77 7.05,5.77l1.72 0z"/>
   <path class="fil0" d="M163.59 106.38c0,-1.92 -1,-3.37 -3.19,-3.37l-2.8 0c-0.59,0 -0.83,0.38 -0.83,0.8l0 10.5c0,0.41 0.24,0.79 0.83,0.79l2.11 0c2.54,0 3.88,-1.76 3.88,-4.07l0 -4.64zm-1.62 4.64c0,1.48 -0.69,2.52 -2.26,2.52l-1.31 0 0 -8.98 2.01 0c1.19,0 1.57,0.74 1.57,1.81l0 4.64zm5.06 -4.9c-0.43,0 -0.78,0.23 -0.78,0.74 0,0.52 0.35,0.74 0.78,0.74l1.45 0c0.71,0 1.12,0.24 1.12,1.11l0 0.4 -1.64 0c-1.59,0 -2.52,0.66 -2.52,2.24l0 1.5c0,1.59 0.93,2.24 2.52,2.24l2.4 0c0.55,0 0.79,-0.35 0.79,-0.76l0 -5.65c0,-1.57 -0.97,-2.57 -2.68,-2.57l-1.45 0zm0.93 7.53c-0.71,0 -0.97,-0.27 -0.97,-0.79l0 -1.47c0,-0.55 0.26,-0.83 0.97,-0.83l1.64 0 0 3.09 -1.64 0zm5.7 -7.53l-0.95 0c-0.4,0 -0.76,0.19 -0.76,0.74 0,0.55 0.36,0.74 0.76,0.74l0.95 0 0 4.11c0,1.93 0.74,3.38 2.92,3.38l0.6 0c0.43,0 0.76,-0.22 0.76,-0.74 0,-0.52 -0.33,-0.74 -0.76,-0.74l-0.6 0c-1.19,0 -1.36,-0.79 -1.36,-1.9l0 -4.11 1.62 0c0.4,0 0.76,-0.22 0.76,-0.74 0,-0.52 -0.36,-0.74 -0.76,-0.74l-1.62 0 0 -1.62c0,-0.41 -0.23,-0.8 -0.78,-0.8 -0.55,0 -0.78,0.38 -0.78,0.8l0 1.62zm6.9 0c-0.43,0 -0.78,0.23 -0.78,0.74 0,0.52 0.35,0.74 0.78,0.74l1.45 0c0.71,0 1.12,0.24 1.12,1.11l0 0.4 -1.64 0c-1.59,0 -2.52,0.66 -2.52,2.24l0 1.5c0,1.59 0.93,2.24 2.52,2.24l2.4 0c0.55,0 0.79,-0.35 0.79,-0.76l0 -5.65c0,-1.57 -0.97,-2.57 -2.68,-2.57l-1.45 0zm0.93 7.53c-0.71,0 -0.97,-0.27 -0.97,-0.79l0 -1.47c0,-0.55 0.26,-0.83 0.97,-0.83l1.64 0 0 3.09 -1.64 0zm15.56 -7.27c0,-1.92 -1,-3.37 -3.19,-3.37l-2.8 0c-0.59,0 -0.83,0.38 -0.83,0.8l0 10.5c0,0.41 0.24,0.79 0.83,0.79l2.11 0c2.54,0 3.88,-1.76 3.88,-4.07l0 -4.64zm-1.62 4.64c0,1.48 -0.69,2.52 -2.26,2.52l-1.31 0 0 -8.98 2 0c1.19,0 1.57,0.74 1.57,1.81l0 4.64zm6.32 -3.42c0.71,0 1.21,0.33 1.21,1.02 0,0.41 0.21,0.79 0.78,0.79 0.57,0 0.76,-0.38 0.76,-0.79 0,-1.76 -1.02,-2.5 -2.75,-2.5l-1.79 0c-0.55,0 -0.78,0.38 -0.78,0.8l0 7.56c0,0.41 0.21,0.79 0.78,0.79 0.57,0 0.78,-0.38 0.78,-0.79l0 -6.87 1.02 0zm3.97 -4.06c0,0.6 0.22,1.02 1.03,1.02 0.78,0 1.03,-0.41 1.03,-1.02 0,-0.62 -0.26,-1.05 -1.03,-1.05 -0.81,0 -1.03,0.43 -1.03,1.05zm1.81 3.19c0,-0.41 -0.21,-0.79 -0.76,-0.79 -0.59,0 -0.8,0.38 -0.8,0.79l0 7.74c0,0.41 0.21,0.79 0.76,0.79 0.59,0 0.8,-0.38 0.8,-0.79l0 -7.74zm4.64 6.46c-0.05,-0.45 -0.14,-0.86 -0.23,-1.17l-1.52 -5.47c-0.12,-0.41 -0.4,-0.72 -0.95,-0.59 -0.57,0.16 -0.66,0.59 -0.52,1l2.37 7.7c0.12,0.41 0.29,0.6 0.64,0.6l0.43 0c0.35,0 0.52,-0.19 0.64,-0.6l2.37 -7.7c0.14,-0.41 0.05,-0.85 -0.52,-1 -0.55,-0.14 -0.83,0.17 -0.95,0.59l-1.52 5.47c-0.09,0.31 -0.17,0.73 -0.22,1.17l-0.02 0zm10.51 -4.2c0,-1.9 -0.67,-3.06 -2.83,-3.06l-0.22 0c-2.16,0 -3,1.16 -3,3.06l0 2.8c0,1.93 0.9,3.3 3.06,3.3l1.59 0c0.43,0 0.76,-0.22 0.76,-0.74 0,-0.52 -0.33,-0.74 -0.76,-0.74l-1.59 0c-1.16,0 -1.5,-0.71 -1.5,-1.81l0 -0.5 3.75 0c0.43,0 0.76,-0.24 0.76,-0.76l0 -1.54zm-4.51 0.85l0 -0.85c0,-1.02 0.29,-1.6 1.45,-1.6l0.22 0c1.16,0 1.28,0.59 1.28,1.6l0 0.85 -2.95 0zm10.79 4.63c0,0.41 0.19,0.79 0.78,0.79 0.57,0 0.78,-0.38 0.78,-0.79l0 -5.3c0,-1.94 -0.95,-3.06 -3.11,-3.06l-2.07 0c-0.55,0 -0.78,0.36 -0.78,0.8l0 7.56c0,0.41 0.23,0.79 0.78,0.79 0.59,0 0.78,-0.38 0.78,-0.79l0 -6.87 1.29 0c1.16,0 1.55,0.54 1.55,1.57l0 5.3zm13.92 -8.1c0,-1.92 -1,-3.37 -3.19,-3.37l-2.8 0c-0.59,0 -0.83,0.38 -0.83,0.8l0 10.5c0,0.41 0.24,0.79 0.83,0.79l2.11 0c2.54,0 3.88,-1.76 3.88,-4.07l0 -4.64zm-1.62 4.64c0,1.48 -0.69,2.52 -2.26,2.52l-1.31 0 0 -8.98 2 0c1.19,0 1.57,0.74 1.57,1.81l0 4.64zm9.6 -2.02c0,-1.9 -0.67,-3.06 -2.83,-3.06l-0.23 0c-2.16,0 -3,1.16 -3,3.06l0 2.8c0,1.93 0.9,3.3 3.06,3.3l1.59 0c0.43,0 0.76,-0.22 0.76,-0.74 0,-0.52 -0.33,-0.74 -0.76,-0.74l-1.59 0c-1.16,0 -1.5,-0.71 -1.5,-1.81l0 -0.5 3.75 0c0.43,0 0.76,-0.24 0.76,-0.76l0 -1.54zm-4.51 0.85l0 -0.85c0,-1.02 0.29,-1.6 1.45,-1.6l0.23 0c1.16,0 1.28,0.59 1.28,1.6l0 0.85 -2.95 0zm9.3 3.94c-1.16,0 -1.43,-0.71 -1.43,-1.83l0 -2.95c0,-1.02 0.22,-1.57 1.38,-1.57l0.22 0c0.71,0 1.19,0.33 1.19,0.84 0,0.45 0.23,0.8 0.78,0.8 0.55,0 0.78,-0.35 0.78,-0.8 0,-1.59 -1.05,-2.33 -2.75,-2.33l-0.22 0c-2.16,0 -2.94,1.16 -2.94,3.06l0 2.95c0,1.95 0.83,3.31 2.99,3.31l0.17 0c1.69,0 2.75,-0.74 2.75,-2.33 0,-0.45 -0.23,-0.79 -0.78,-0.79 -0.55,0 -0.78,0.34 -0.78,0.79 0,0.52 -0.48,0.85 -1.19,0.85l-0.17 0zm4.4 -10.24c0,0.6 0.22,1.02 1.03,1.02 0.78,0 1.04,-0.41 1.04,-1.02 0,-0.62 -0.26,-1.05 -1.04,-1.05 -0.81,0 -1.03,0.43 -1.03,1.05zm1.81 3.19c0,-0.41 -0.21,-0.79 -0.76,-0.79 -0.59,0 -0.79,0.38 -0.79,0.79l0 7.74c0,0.41 0.21,0.79 0.76,0.79 0.59,0 0.8,-0.38 0.8,-0.79l0 -7.74zm4.99 8.53c1.69,0 2.61,-0.74 2.61,-2.33l0 -0.5c0,-1.16 -0.57,-1.83 -1.59,-2.24l-1.83 -0.74c-0.41,-0.17 -0.67,-0.45 -0.67,-0.93l0 -0.24c0,-0.52 0.24,-0.97 1.09,-0.97l0.29 0c0.62,0 0.86,0.28 0.9,0.66 0.04,0.45 0.19,0.79 0.76,0.79 0.57,0 0.74,-0.33 0.74,-0.78 0,-1.38 -0.95,-2.04 -2.54,-2.04l-0.1 0c-1.73,0 -2.63,0.74 -2.63,2.33l0 0.24c0,1.12 0.57,1.88 1.57,2.3l1.85 0.76c0.4,0.17 0.67,0.41 0.67,0.86l0 0.5c0,0.52 -0.21,0.97 -1.03,0.97l-0.81 0c-0.62,0 -0.79,-0.26 -0.84,-0.66 -0.05,-0.42 -0.21,-0.78 -0.74,-0.78 -0.57,0 -0.76,0.33 -0.76,0.78 0,1.33 0.88,2.02 2.47,2.02l0.6 0zm4.23 -11.72c0,0.6 0.22,1.02 1.03,1.02 0.78,0 1.04,-0.41 1.04,-1.02 0,-0.62 -0.26,-1.05 -1.04,-1.05 -0.81,0 -1.03,0.43 -1.03,1.05zm1.81 3.19c0,-0.41 -0.21,-0.79 -0.76,-0.79 -0.59,0 -0.79,0.38 -0.79,0.79l0 7.74c0,0.41 0.21,0.79 0.76,0.79 0.59,0 0.8,-0.38 0.8,-0.79l0 -7.74zm4.97 7.06c-1.16,0 -1.36,-0.67 -1.36,-1.74l0 -2.88c0,-1.07 0.21,-1.74 1.36,-1.74l0.38 0c1.16,0 1.36,0.67 1.36,1.74l0 2.88c0,1.07 -0.21,1.74 -1.36,1.74l-0.38 0zm0.38 1.48c2.16,0 2.92,-1.33 2.92,-3.23l0 -2.88c0,-1.9 -0.76,-3.23 -2.92,-3.23l-0.38 0c-2.16,0 -2.92,1.33 -2.92,3.23l0 2.88c0,1.9 0.76,3.23 2.92,3.23l0.38 0zm9.37 -0.81c0,0.41 0.19,0.79 0.78,0.79 0.57,0 0.78,-0.38 0.78,-0.79l0 -5.3c0,-1.94 -0.95,-3.06 -3.11,-3.06l-2.07 0c-0.55,0 -0.78,0.36 -0.78,0.8l0 7.56c0,0.41 0.22,0.79 0.78,0.79 0.59,0 0.78,-0.38 0.78,-0.79l0 -6.87 1.29 0c1.16,0 1.56,0.54 1.56,1.57l0 5.3zm6.52 0.79c1.69,0 2.61,-0.74 2.61,-2.33l0 -0.5c0,-1.16 -0.57,-1.83 -1.59,-2.24l-1.83 -0.74c-0.41,-0.17 -0.67,-0.45 -0.67,-0.93l0 -0.24c0,-0.52 0.24,-0.97 1.09,-0.97l0.29 0c0.62,0 0.86,0.28 0.9,0.66 0.03,0.45 0.19,0.79 0.76,0.79 0.57,0 0.74,-0.33 0.74,-0.78 0,-1.38 -0.95,-2.04 -2.54,-2.04l-0.1 0c-1.73,0 -2.62,0.74 -2.62,2.33l0 0.24c0,1.12 0.57,1.88 1.57,2.3l1.85 0.76c0.4,0.17 0.67,0.41 0.67,0.86l0 0.5c0,0.52 -0.21,0.97 -1.04,0.97l-0.81 0c-0.62,0 -0.79,-0.26 -0.85,-0.66 -0.05,-0.42 -0.21,-0.78 -0.74,-0.78 -0.57,0 -0.76,0.33 -0.76,0.78 0,1.33 0.88,2.02 2.47,2.02l0.6 0z"/>
   <g>
    <path class="fil0" d="M68.3 93.73l-11.74 11.67c-4.46,4.26 -9.54,6.39 -15.24,6.39l0.07 0c-3.42,0 -6.6,-0.76 -9.56,-2.27 -1.41,-0.85 -2.72,-1.89 -3.93,-3.09l-0.05 -0.05 -0.14 -0.14 -0 -0 40.59 -12.5zm-36.47 15.79l-0.02 -0.01c-2,-1.03 -3.89,-2.4 -5.69,-4.11l-19.73 -19.76c-4.26,-4.44 -6.39,-9.54 -6.39,-15.25l0 -19.61c0,-5.95 2.11,-11.03 6.35,-15.25 3.08,-3.06 6.62,-5.01 10.61,-5.85 1.18,-0.25 2.31,0.02 3.25,0.79 0.94,0.76 1.44,1.81 1.44,3.02l0 35.22 0 0.2 0 -0.03c0.04,0.99 0.42,1.85 1.13,2.57l15.81 15.92c0.76,0.76 1.68,1.15 2.75,1.15 1.07,0 2,-0.38 2.76,-1.14l12.25 -12.25c0.94,5.23 3.45,9.89 7.26,13.9l0.05 0.05 4.66 4.64 -36.47 15.79zm-0.02 -0.01l0.02 0.01 -0.02 -0.01zm-3.91 -3.08l-0.05 -0.05 0.05 0.05zm84.62 -88.18c-34.61,-14.2 -74.13,-10.07 -105.13,11.18 -1.48,1.02 -3.28,1.12 -4.87,0.28 -1.59,-0.84 -2.52,-2.38 -2.52,-4.17l0 -0.78c0,-1.46 0.59,-2.71 1.71,-3.64 32.05,-26.56 77.85,-28.14 111.62,-4.35 0.35,0.25 0.46,0.71 0.26,1.09 -0.21,0.38 -0.66,0.54 -1.06,0.38zm29.54 3.03c0.84,2.16 1.32,4.48 1.42,6.96 0.01,0.13 0.01,0.26 0.02,0.39l0 0.58 0 41.17 0 0.01 0 0.01 -0 0.2 0 0.01 0 0.01 0 0.01 0 0.01 0 0 0 0.01 0 0.01 -0 0.01 0 0.01 -0 0.13 0 0.01 0 0.01 0 0.01 0 0.01 0 0.01 0 0.01 -0 0.01 0 0.01 0 0 0 0.01 0 0.01 0 0.01 0 0.01 0 0.01 -0 0.01 0 0.01 0 0.01 0 0.01 0 0.01 -0 0.01 0 0.01 0 0.01 0 0.01 0 0.01 0 0.01 0 0.01 -0 0.01c-0.07,2.16 -0.45,4.24 -1.14,6.22l-0.05 0.14c-0.05,0.14 -0.1,0.27 -0.15,0.4l-0.01 0.02 -0.05 0.13 -0.05 0.14c-0.09,0.23 -0.18,0.45 -0.28,0.68l-0 0.01 -0.06 0.13 -0.06 0.14 -0.06 0.14 -0.06 0.14 -0.05 0.1 -0.03 0.06 -0.1 0.2 -0.03 0.05 -0.05 0.1 -0.01 0.01 -0.07 0.13 -0.06 0.12 -0.01 0.02 -0.07 0.13 -0.05 0.1 -0.04 0.06 -0.05 0.1 -0.07 0.13 -0.07 0.13 -0.08 0.13 -0.01 0.01 -0.06 0.1 -0.01 0.02 -0.08 0.13 -0.05 0.08 -0.06 0.1 -0.05 0.09 -0.11 0.17 -0.04 0.07 -0.11 0.17 -0.04 0.06 -0.09 0.14 -0.06 0.09 -0.09 0.13 -0.05 0.07 -0.11 0.16 -0.04 0.06 -0.13 0.18 -0.03 0.04 -0.11 0.16 -0.07 0.09 -0.09 0.13 -0.03 0.04 -0.02 0.02 -0 0 -0.12 0.16 -0.05 0.07 -0.13 0.17 -0.03 0.04 -0.14 0.18 -0.01 0.01 -0.01 0.01 -0.02 0.02 -0.14 0.17 -0.02 0.02 -0.02 0.02 -0.15 0.18 -0.02 0.02 -0.15 0.18 -0.05 0.06 -0.15 0.18 -0 0 -0 0c-0.12,0.13 -0.24,0.27 -0.36,0.4l-0.05 0.05 -0.14 0.15 -0.03 0.03 -0.02 0.02 -0.18 0.19 -19.76 19.76c-4.45,4.25 -9.52,6.39 -15.21,6.39l-0.04 0 0.07 0 -0.04 0c-5.71,-0.01 -10.78,-2.14 -15.21,-6.39 -2.45,-2.44 -31.98,-32 -15.2,-15.28 4.44,4.26 7.68,0.23 13.4,0.23 0.64,4.04 8.29,-0.03 17.01,-0.23l18.74 -18.73c0.44,-0.5 0.73,-1.07 0.86,-1.7l0 -0.02c0.07,-0.3 0.11,-0.61 0.11,-0.94 0,-14.59 0,-40.33 0,-56.78 0,-1.2 0.49,-2.24 1.42,-3 0.93,-0.76 2.05,-1.04 3.23,-0.81 4.04,0.81 7.63,2.71 10.73,5.81l-0.05 -0.05c2.16,2.16 3.76,4.63 4.81,7.4z"/>
   </g>
   <path class="fil0" d="M-0 67.36l0 -16.57c0,-0.25 0,-0.5 0.01,-0.75 -0.01,5.83 -0.01,13.21 -0.01,17.32z"/>
   <path class="fil0" d="M1.18 77.42c-0.79,-2.23 -1.18,-4.57 -1.18,-7.02l0 -2.04 0 1.9c0.05,2.57 0.45,4.96 1.18,7.17z"/>
   <path class="fil0" d="M67.17 85.64c-4.21,-4.44 -6.32,-9.54 -6.32,-15.24l0 -28.03c0,-5.95 2.11,-11.03 6.35,-15.25 3.08,-3.06 6.62,-5.01 10.61,-5.85 1.19,-0.25 2.31,0.02 3.25,0.79 0.94,0.76 1.44,1.81 1.44,3.02l0 43.64c0,1.06 0.38,1.98 1.13,2.74l15.8 15.92c0.76,0.76 1.68,1.15 2.76,1.15 0.81,0 1.58,-0.16 2.17,-0.65l0.59 -0.49 -0.24 0.25 -0.01 0.01 -2.43 2.43 -0.04 0.04c-4.45,4.25 -9.52,6.39 -15.21,6.4l-0.04 0 0.07 0 -0.04 0c-5.71,-0.01 -10.78,-2.14 -15.21,-6.4l-0.75 -0.75 -0.22 -0.21 -0.47 -0.47 -0.38 -0.38c-11.61,-11.53 25.79,25.81 -2.82,-2.66z"/>
  </g>
 </g>
</svg>
